<?xml version="1.0" encoding="utf-8"?>
<!-- Generator: Adobe Illustrator 18.0.0, SVG Export Plug-In . SVG Version: 6.00 Build 0)  -->
<!DOCTYPE svg PUBLIC "-//W3C//DTD SVG 1.1//EN" "http://www.w3.org/Graphics/SVG/1.1/DTD/svg11.dtd">
<svg version="1.1" id="Layer_1" xmlns="http://www.w3.org/2000/svg" xmlns:xlink="http://www.w3.org/1999/xlink" x="0px" y="0px"
	 viewBox="0 0 729.8 730.1" enable-background="new 0 0 729.8 730.1" xml:space="preserve">
<g>
	<g>
		<path fill="#FEFEFE" d="M342.8,1c2.8-0.7,5.6-1,8.4-1c10,0,20-0.1,30,0c5.8-0.1,11.3,2.1,17,2.1c5.1,0.1,10.2,0.8,15.3,1.6
			c8.6,0.7,17.1,2.1,25.5,3.8c8.3,2.8,17.2,3.6,25.5,6.5c5.7,2.1,11.7,2.9,17.5,4.9c4.4,1.3,8.4,3.8,12.7,5.4
			c9.9,3.6,19.5,7.9,29,12.4c8.1,3.6,15.9,7.8,23.3,12.6c10.9,5.9,20.9,13.1,31.2,20c7.2,4.6,13.9,10,20.1,16
			c9.3,7.6,18.2,15.7,26.6,24.4c8.4,8.3,15.8,17.6,23.7,26.3c2.6,3.1,4.8,6.5,7.4,9.7c5,6.9,10.8,13.3,15.1,20.7
			c5.2,8.9,10.9,17.5,15.5,26.7c3.4,5.6,5.4,11.9,8.5,17.6c5.4,10.8,9.3,22.3,14.4,33.2c1.7,4.3,2.5,8.9,3.9,13.3
			c4.4,12.8,7.6,26.1,9.9,39.4c2.9,12.9,3.4,26.1,5.4,39.1c0.3,9.5,1.4,19,1.1,28.6c0.3,9.9-0.8,19.6-1.1,29.5
			c-0.5,4.5-1.4,9-1.7,13.5c-0.9,15-4.3,29.7-8,44.2c-2.2,11.5-6,22.5-9.1,33.8c-3.3,8-6,16.3-9.8,24.1c-2.7,7.5-6.8,14.5-10.1,21.7
			c-2.4,4.3-5.1,8.5-7.2,13c-4.4,8.3-9.5,16.3-14.7,24.1c-4,6.2-9,11.6-13.2,17.7c-4.4,6.5-9.7,12.3-14.9,18.1
			c-11.1,12.8-23,25-35.5,36.5c-12.6,10.2-25.8,19.6-39,29.1c-7.4,4.8-14.7,9.8-22.7,13.5c-5,2.3-9.1,6.1-14.2,8.2
			c-5.8,2.5-11.4,5.6-17.3,7.9c-17.6,8-36.2,13.4-54.7,18.7c-10.6,2.7-21.1,5.8-32.1,7c-8.4,1.8-17.1,1.5-25.6,3.1
			c-9.2,0.7-18.3,2.4-27.5,2.1c-9.2-0.2-18.6,0.6-27.7-0.9c-7.8-1-15.8-0.7-23.5-2.3c-25.8-2.5-50.9-9.6-75.5-17.5
			c-7.4-3-14.9-5.7-22.3-8.8c-4.2-1.7-8.6-3-12.4-5.6c-3.7-2.5-7.9-4-11.8-6c-11.2-6.1-22.5-12.1-33.1-19.1
			c-8.6-4.9-16.2-11.2-24.2-17c-4.6-3.3-8.4-7.5-12.9-10.9c-6.8-5.1-12.6-11.3-18.6-17.3c-8.3-7.8-15.4-16.6-23.2-24.8
			c-4-5.6-8.6-10.8-12.8-16.2c-7.9-12.4-17.7-23.6-24.1-36.9c-4.2-7.7-9.4-14.9-12.7-23c-5.4-10.2-9.6-21.1-13.3-32.1
			c-4.1-8.8-6.4-18.3-9.2-27.5c-3.3-15.5-8.1-30.7-9.6-46.5c-1.6-9.4-1.3-19-3.4-28.4c-0.4-11.9-1.3-23.8-0.5-35.6
			c0.3-5.5-0.1-11,1.1-16.4c1.2-5.5,1.1-11,1.6-16.6c1.8-11.9,2.7-24.1,6.4-35.7c1.9-6,1.9-12.4,4-18.4c1.8-5,4-9.9,5.2-15.1
			c1.2-6.4,4.2-12.2,6.2-18.3c7.4-16.8,14.7-33.7,24.1-49.6c2.6-6.2,7.2-11.2,10.3-17.1c6.2-8.4,12.1-17.2,18.2-25.7
			c8.5-11,17.5-21.7,27.7-31.2c12.7-12.7,25.7-25.3,40.4-35.7c12.2-7.8,23.6-16.9,36.4-23.8c7.4-4.3,14.7-9,22.7-12.3
			c5.4-2.3,10.2-5.8,15.7-7.8c13.4-5.5,26.8-11.2,41-14.4c7.3-2.6,14.7-4.5,22.3-5.7c12.5-4.1,25.7-5,38.6-6.9
			C329,1.7,336.1,2.9,342.8,1z M336.3,57.8c-9.5,0.2-19,1.6-28.2,4c-9.1,1.5-18.3,3.2-27.1,6.2c-6.7,2.3-13.8,3.1-20.2,6.2
			c-5.6,2.8-11.8,3.9-17.4,6.7c-12.3,6.6-25.4,11.9-37.2,19.5c-14.5,7.7-26.8,18.8-40.3,28c-12,9.9-22.7,21.3-33.2,32.7
			c-8.5,9.9-17.2,19.9-23.8,31.2c-7.7,11-14.9,22.4-20.3,34.7c-5.9,11.5-10.2,23.7-15.3,35.6c-1,2.6-1.6,5.3-2.3,8
			c-1.9,8.1-5.3,15.8-6.4,24c-1.4,10.8-5.7,21-6.2,31.9c-0.2,6.7-2,13.3-1.9,20c-0.1,12.8-0.4,25.7,0.2,38.5
			c1.7,11.9,1.4,24,4.5,35.7c1.3,4.6,2.2,9.4,3.2,14.1c2,9.9,5.4,19.4,8,29.1c3.1,7.7,5.5,15.8,8.9,23.4c5.1,12.2,11,24.1,17.6,35.6
			c7.1,9.3,12.6,19.8,20,28.8c4.6,5.4,8.7,11.3,13.6,16.4c4.8,4.9,8.6,10.7,13.6,15.4c5.7,5.3,11,11,16.9,16
			c1.7,1.4,3.8,3.4,6.2,2.4c8.1-12.4,16.1-25.1,27-35.2c4.6-5,10.4-8.6,15.3-13.3c-3.6-4.9-9.7-6.7-14.4-10.1
			c-11.1-6.8-20.6-15.9-29.7-25.1c-4.3-4.1-8.6-8.2-12.3-12.7c-5.4-5.6-10.5-11.6-13.5-18.8c-1.3-3.2-0.9-6.8-1-10.2
			c0.2-11.6,0.5-23.2,1.1-34.8c1.9-8.8,0.8-17.9,2.3-26.7c1.3-5,1.3-10.1,2-15.2c2.4-10,3.3-20.2,5.8-30.2c3.8-14.2,5.7-29,10.2-43
			c1.7-5.7,2.7-11.6,5.2-17c1.5-2.4-0.3-4.8-1.2-7c-3-6.3-3.5-13.4-5.7-20c-3.1-10.7-2.9-22-3-33.1c0.1-8.7,0-17.5,2.1-25.9
			c2.3-8.3,4.1-16.8,8.2-24.5c3.9-10.6,11-19.6,17.1-29c5.6-8.2,13.1-14.9,20.1-21.8c5-4.8,10.7-8.8,16.3-12.9
			c2.6-1.8,4.8-4.2,7.8-5.3c4.9,4.4,8.4,10.1,12.5,15.2c6.1,7.3,11.4,15.2,18,21.9c6.9,9.3,13.9,18.6,21.4,27.6
			c2.7,3.3,5,7.1,8.4,9.9c1.7,1.3,3.9,0.5,5.8,0.2c8.3-2.5,17-3.2,25.4-5c6.4-1.6,13.1-1,19.6-2.4c4.3-0.8,8.7-0.6,13.1-0.7
			c12.4,0,24.7-0.2,37.1,0.3c5.3,0.8,10.6,1.8,15.9,2.1c9.2,1.9,18.7,3,27.7,5.9c1.8,0.5,3.7,1.1,5.6,1c4.3-4.5,7.2-10.1,11.8-14.4
			c9.6-11.1,18.1-23.1,27.4-34.4c7.4-9.7,14.2-20.1,23.4-28.3c8.3,6.6,16.4,13.4,23.9,20.9c7.3,7.7,15.1,15,20.8,24.1
			c10.1,14.1,17.5,30.2,21.3,47.2c4.3,15.4,3.9,31.7,2.7,47.5c-1.4,9.1-3.7,18-5.7,27c-0.8,4.1-3,7.9-3.7,12.1
			c0.6,3.3,2.4,6.1,3.3,9.3c2.7,10.6,6.4,21,8.4,31.8c1.6,9.4,5,18.4,6.5,27.9c0.3,7.5,2.6,14.8,4,22.1c1.2,13.3,2.7,26.6,4.2,39.9
			c0.4,15,1.3,30.1,0.9,45.1c-0.3,4.3-2.9,7.9-5.1,11.4c-7.3,10.2-15.9,19.4-25.1,27.8c-9.8,7.9-19.5,15.8-29.8,23
			c-3.8,2.3-8.2,3.9-10.8,7.6c5,4.6,10.8,8.1,15.2,13.3c9.2,9.5,18.1,19.5,24.9,30.9c1.1,1.8,2.3,3.5,4.1,4.7c3-1.8,5.8-4.1,8.4-6.5
			c11.8-10.9,22.8-22.6,33.5-34.5c6.4-7.8,11.6-16.4,17.7-24.4c4.5-7.2,8.4-14.8,13.2-21.8c2.9-4,4.6-8.6,6.9-12.8
			c4.3-7.9,7.4-16.3,10.6-24.6c2.1-5.5,4.5-10.8,6.2-16.4c1.4-4.4,1.9-8.9,3.4-13.2c3.2-8.4,3.6-17.5,5.9-26.1
			c2.4-14.7,5.3-29.5,5.1-44.4c1.1-11.9-0.1-23.9-0.2-35.8c-0.1-2.8-0.6-5.6-1-8.4c-1.2-6.8-1-13.8-2.6-20.6
			c-2.4-10.7-3.7-21.8-7.7-32.1c-2.5-8.2-4-16.8-7.8-24.6c-7.5-21.9-18.3-42.6-31.3-61.7c-5.3-9.2-12.4-17-18.6-25.5
			c-8.8-10.1-18.4-19.5-27.9-29c-6.2-5.9-12.2-12-19.2-16.9c-5.8-4.5-11.4-9.4-17.7-13.2c-9.3-6.5-19.7-11.3-29.1-17.7
			c-9.1-4.7-18.5-8.9-27.9-13.1c-10.3-4.2-21-7.5-31.7-10.6c-10.5-4-21.8-4.5-32.6-7.5c-14.7-3.2-29.7-3.1-44.6-4.5
			C360.9,55.5,348.6,56.9,336.3,57.8z M213.3,239.9c-2.1,5.6-2.2,11.7-2.2,17.6c0.3,4.5,0.3,9.1,1.7,13.4c2.3,7.2,3.9,14.8,7.5,21.5
			c2.1,5.1,4.6,10,6.5,15.2c-0.9,4.1-3.2,7.8-4.4,11.8c-2.2,7.1-4.8,14.1-6.3,21.4c-1.3,8.4-4.9,16.3-5.4,24.8
			c-2.3,9.6-3.1,19.5-6.2,28.9c-1.7,6-0.8,12.3-2.2,18.4c-1.7,6.7-0.7,13.7-2.4,20.3c-1.4,5.9-0.6,12-1.5,17.9
			c-1,5.4-1.3,10.9-0.9,16.3c0.8,2.8,3,4.8,4.6,7.2c10.3,14.3,26.6,22.3,40.8,32c12.9,6.6,26.3,12.5,40.5,16
			c6.3,2.5,13,3.7,19.7,4.8c6.6,0.5,12.8,2.7,19.3,3.7c7,1.1,14.1,0.6,21,1.9c11.2,0.6,22.5,0.5,33.8,0.3c5.7,0.1,11.2-1.5,16.9-1.3
			c9.5,0.2,18.8-2.2,28-4c5.8-0.7,11.5-1.9,17.2-3.3c7.6-2.7,15.7-3.9,23.2-7c9.6-4,19.4-7.7,28-13.7c3.6-2.5,7.8-4.1,11.3-6.7
			c11.2-8.2,22.4-17.1,30.1-28.9c0.9-7.6-0.2-15.3-0.2-22.9c-1.2-7.3-1.3-14.8-3.1-22c-0.9-8.3-2.3-16.6-3-25c-1-7-2.9-13.8-4-20.7
			c-2.1-8.5-2.4-17.5-5.2-25.8c-3.4-10-4.9-20.5-8.6-30.3c-1.4-4.9-3.5-9.5-5.4-14.1c3.6-9,9.1-17.4,11.2-27.1
			c1.2-5.3,4-10.3,4.1-15.9c0.1-4.7,0.1-9.4,0-14.1c-0.1-5.9-2.6-11.4-4.1-17c-1.8-6.7-4.4-13.5-9.4-18.5
			c-17.1,18.1-30.4,39.2-46.5,58.1c-5.1-1.9-10-4.3-15-6.4c-8.3-4.3-17.4-6-26.2-8.8c-4.4-1.5-9.1-1.3-13.5-2.4
			c-5.6-1.3-11.5-0.8-17.2-1.7c-7.1-1.4-14.4-0.8-21.6-1c-6.9,0.2-13.8-0.4-20.6,1c-6.5,1.1-13.1,0.3-19.5,1.8
			c-4.4,1-9.1,0.9-13.4,2.6c-6.2,2.5-13,3-19,5.9c-6.3,3-12.9,5.6-19.4,8.2c-6.3-6.4-11.3-13.9-17.1-20.8
			c-6.9-8.8-13.9-17.4-21.3-25.6c-3.1-3.5-5.3-7.7-8.8-10.9C217.8,221.2,216.2,231.2,213.3,239.9z M269.4,584.8
			c-5,1.5-9.4,4.5-14.1,6.9c-6.9,3.3-12.4,8.8-18.2,13.8c-6.4,6.8-11.7,14.5-16.6,22.5c-1.5,2.4-3.1,4.8-4,7.6
			c1.9,2.1,4.8,3,7.3,4.4c12.3,6.9,25.9,11.2,38.7,17c4.7,2,9.8,2.8,14.7,4.3c10.3,3.8,21.4,4.7,31.9,7.5c6.1,1.7,12.5,1.3,18.6,2.6
			c6.1,1.3,12.3,1.2,18.5,1.4c14.7,0.3,29.3,0.3,44-0.2c15.1-0.1,29.8-3.8,44.5-6.7c9-2.1,17.8-5.3,26.7-7.7
			c12.2-3.4,23.6-8.8,35.5-13.3c4-1.8,7.6-4.3,11.6-6c1.8-1,4-1.5,5-3.4c-1.1-3.3-3.2-6.1-4.9-9c-4-6.6-7.8-13.4-13.6-18.6
			c-8-7.4-15.8-15.4-25.9-20c-5.2-2-10.6-3.3-15.8-5.5c-8.5-3.3-17.4,0.5-25.8,2c-5.5,1.4-11.3,1.1-16.9,2.5
			c-9,1.5-18.2,0.7-27.2,1.6c-5,1.1-10.2,1-15.3,1c-7.1-0.1-14.3,0.5-21.3-1c-9-1-18.3,0.1-27.2-2c-10.8-1.3-21.6-2.5-32.1-5.5
			c-2.2-0.5-4.6-1.6-6.8-0.6C277,581.7,273.3,583.5,269.4,584.8z"/>
	</g>
	<path fill="#FEFEFE" d="M284.8,338c4.4-1.3,9-1,13.5-1c5.8,0,11.3,2.5,16.4,5c5.6,2.7,10.1,7.3,13.9,12.1c2.8,3.9,5.9,7.8,6.8,12.6
		c2,9,1.8,18.6-0.8,27.5c-5.3,12.3-16.2,22.6-29.5,25.7c-7.4,1.6-15.1,1.4-22.4-0.4c-9.8-2.7-18-9.7-23.5-18.1
		c-6.9-10.5-7.8-24-4.6-36c0.8-3.3,2.7-6.2,4.7-8.9c2.7-3.6,5-7.6,8.6-10.4C272.9,342.2,278.9,340,284.8,338z"/>
	<path fill="#FEFEFE" d="M425.8,337.9c4-1.2,8.3-0.9,12.5-0.9c5.9-0.1,11.2,2.6,16.4,4.9c10.7,4.9,18.1,15.3,21.2,26.5
		c2.2,10.4,0.6,21.4-3.8,31c-5,7.6-11.8,14.3-20.4,17.9c-6.9,3.9-15,2.8-22.5,2.8c-4.5,0.1-8.6-1.8-12.5-3.8
		c-11.8-5.5-20.6-17-22.8-29.9c-0.7-8.4-0.7-17.3,3.2-25c3-5.5,6.1-11.1,11.2-14.9C413.4,342.4,419.6,340,425.8,337.9z"/>
	<path fill="#FEFEFE" d="M338,449.2c17.8-0.4,35.7-0.4,53.6,0c-1.4,2.4-3.2,4.5-5.2,6.4c-7.1,6.9-13.7,14.2-21.2,20.6
		c-4.9-2.8-8.2-7.6-12.4-11.3C347.8,459.7,342.1,455.2,338,449.2z"/>
</g>
</svg>
